<svg xmlns="http://www.w3.org/2000/svg" viewBox="0 0 58 37"><defs><style>.cls-1{fill:none;stroke:#000;stroke-miterlimit:10;}</style></defs><title>Asset 3</title><g id="Layer_2" data-name="Layer 2"><g id="Layer_1-2" data-name="Layer 1"><path d="M48.63,29.91q-.33-4.56-.33-6.86c0-.56,0-1.42.09-2.57s.1-2,.1-2.58c0-.39-.15-.58-.44-.58s-.95,0-1.71.08-1.32.08-1.7.08-.88,0-1.57-.1-1.21-.1-1.56-.1a.66.66,0,0,0-.28,0c-.16.05-.23.18-.23.41a24,24,0,0,0,.23,3c.18,1.6.28,2.59.32,3a10.8,10.8,0,0,1-4,.91,5.62,5.62,0,0,1-4.42-1.74,6.61,6.61,0,0,1-1.51-4.58A7.1,7.1,0,0,1,33,13.71a5.12,5.12,0,0,1,4.23-2,6.23,6.23,0,0,1,3,.73A7.41,7.41,0,0,1,42,13.8a3.31,3.31,0,0,0,.82.73c.3,0,1-.66,2.05-2A6.72,6.72,0,0,0,46.47,10a1.33,1.33,0,0,0-.3-.6,9.69,9.69,0,0,0-4.05-3.2,12.78,12.78,0,0,0-5.08-1A11.64,11.64,0,0,0,28.5,8.56a5.24,5.24,0,0,0-1.4-1.29Q25,6,20.66,5.85q-1,0-6.63,0c-2.35,0-3.72,0-4.11.07s-.57.18-.56.41l0,.25c.09,1.94.16,3.39.19,4.37q.23,5.67.22,7.74c0,1.28-.08,3.2-.22,5.77s-.23,4.49-.23,5.75c0,.3.18.48.52.55a59.49,59.49,0,0,0,7.8.27h1.26l1.27,0c3.9,0,6.62-.83,8.17-2.47.16-.16.27-.35.41-.52a12,12,0,0,0,8.34,3.09,19.49,19.49,0,0,0,7.12-1.46c.25.1.91.27,2,.53a13.28,13.28,0,0,0,1.94.39c.36,0,.53-.16.5-.48ZM16.52,11.26c.13-.13.64-.28,1.92-.28a10.25,10.25,0,0,1,2.8.27,2,2,0,0,1,1.53,2q0,2.19-3.82,2.19a7.57,7.57,0,0,1-2.25-.16c-.21-.15-.31-.81-.31-2a9.75,9.75,0,0,1,.07-1C16.5,11.83,16.33,11.46,16.52,11.26Zm5.49,14a8.44,8.44,0,0,1-2.7.3,6.91,6.91,0,0,1-2.56-.22A5.68,5.68,0,0,1,16.52,23a5.58,5.58,0,0,1,.19-2.17,8,8,0,0,1,2.49-.17A7.75,7.75,0,0,1,22,21,2.14,2.14,0,0,1,23.3,23.2,2,2,0,0,1,22,25.26Z"/><rect class="cls-1" x="0.5" y="0.5" width="57" height="36"/></g></g></svg>